<svg width="18" height="18" viewBox="0 0 18 18" fill="none" xmlns="http://www.w3.org/2000/svg">
<g clip-path="url(#clip0_397_1989)">
<path fill-rule="evenodd" clip-rule="evenodd" d="M2.57115 17.3569C1.50603 17.3569 0.642578 16.4934 0.642578 15.4283V7.87472H17.3569V15.4283C17.3569 16.4934 16.4934 17.3569 15.4283 17.3569H2.57115ZM0.642578 2.57115V6.26758H17.3569V2.57115C17.3569 1.50603 16.4934 0.642578 15.4283 0.642578H2.57115C1.50603 0.642578 0.642578 1.50603 0.642578 2.57115ZM4.49972 4.33901H3.21401C2.7702 4.33901 2.41044 3.97924 2.41044 3.53544C2.41044 3.09163 2.7702 2.73186 3.21401 2.73186H4.49972C4.94352 2.73186 5.30329 3.09163 5.30329 3.53544C5.30329 3.97924 4.94352 4.33901 4.49972 4.33901ZM8.35686 4.33901H9.64258C10.0864 4.33901 10.4461 3.97924 10.4461 3.53544C10.4461 3.09163 10.0864 2.73186 9.64258 2.73186H8.35686C7.91306 2.73186 7.55329 3.09163 7.55329 3.53544C7.55329 3.97924 7.91306 4.33901 8.35686 4.33901ZM14.7854 4.33901H13.4997C13.0559 4.33901 12.6961 3.97924 12.6961 3.53544C12.6961 3.09163 13.0559 2.73186 13.4997 2.73186H14.7854C15.2293 2.73186 15.589 3.09163 15.589 3.53544C15.589 3.97924 15.2293 4.33901 14.7854 4.33901Z" fill="#008A00"/>
</g>
<defs>
<clipPath id="clip0_397_1989">
<rect width="18" height="18" fill="white"/>
</clipPath>
</defs>
</svg>
