<svg width="96" height="96" viewBox="0 0 96 96" fill="none" xmlns="http://www.w3.org/2000/svg">
<rect width="96" height="96" fill="#DFE5E5"/>
<path fill-rule="evenodd" clip-rule="evenodd" d="M41.4286 45.714V51.9761C40.6178 51.8399 40 51.1349 40 50.2854V42.8569C40 41.9101 40.7675 41.1426 41.7143 41.1426H51.4286C52.2779 41.1426 52.9831 41.7604 53.1192 42.5711H44.5714C42.8357 42.5711 41.4286 43.9783 41.4286 45.714ZM54.2857 54.8569C55.2325 54.8569 56 54.0893 56 53.1426V45.714C56 44.7672 55.2325 43.9997 54.2857 43.9997H44.5714C43.6247 43.9997 42.8571 44.7672 42.8571 45.714V53.1426C42.8571 53.3866 42.9081 53.6187 43 53.8287C43.0339 53.9062 43.0734 53.9808 43.1179 54.0518C43.421 54.5354 43.9587 54.8569 44.5714 54.8569H52.7345H52.7303H54.2857ZM50.2857 47.9997C50.2857 48.7887 50.9253 49.4283 51.7143 49.4283C52.5033 49.4283 53.1429 48.7887 53.1429 47.9997C53.1429 47.2107 52.5033 46.5711 51.7143 46.5711C50.9253 46.5711 50.2857 47.2107 50.2857 47.9997ZM46.0406 47.5957L44.4286 49.2076V52.8569C44.4286 53.0935 44.6205 53.2854 44.8571 53.2854H52.5384L46.8487 47.5957C46.6255 47.3725 46.2637 47.3725 46.0406 47.5957Z" fill="#A6B1B5"/>
</svg>
