<svg width="22" height="22" viewBox="0 0 22 22" fill="none" xmlns="http://www.w3.org/2000/svg">
<g clip-path="url(#clip0_520_108)">
<path fill-rule="evenodd" clip-rule="evenodd" d="M8.73228 1.08308L8.00459 2.96155L5.49998 4.38308L3.50306 4.07845C3.17054 4.03332 2.83212 4.08807 2.5308 4.23572C2.22946 4.38337 1.97883 4.61727 1.81075 4.9077L1.13382 6.0923C0.960365 6.38735 0.880447 6.72807 0.904617 7.06948C0.928788 7.41089 1.05591 7.73694 1.26921 8.00462L2.53844 9.57845V12.4215L1.30305 13.9954C1.08976 14.2631 0.962634 14.5891 0.938464 14.9305C0.914294 15.2719 0.994212 15.6126 1.16767 15.9077L1.84459 17.0923C2.01268 17.3827 2.26331 17.6167 2.56465 17.7642C2.86597 17.9119 3.20439 17.9666 3.53691 17.9215L5.53383 17.617L8.00459 19.0385L8.73228 20.917C8.85501 21.235 9.07093 21.5086 9.35176 21.7017C9.63259 21.895 9.96523 21.9991 10.3061 22H11.7277C12.0686 21.9991 12.4012 21.895 12.6821 21.7017C12.9629 21.5086 13.1788 21.235 13.3015 20.917L14.0292 19.0385L16.5 17.617L18.4969 17.9215C18.8295 17.9666 19.1678 17.9119 19.4692 17.7642C19.7704 17.6167 20.0211 17.3827 20.1892 17.0923L20.8662 15.9077C21.0397 15.6126 21.1195 15.2719 21.0953 14.9305C21.0711 14.5891 20.9441 14.2631 20.7307 13.9954L19.4615 12.4215V9.57845L20.6969 8.00462C20.9102 7.73694 21.0373 7.41089 21.0615 7.06948C21.0857 6.72807 21.0057 6.38735 20.8322 6.0923L20.1554 4.9077C19.9873 4.61727 19.7366 4.38337 19.4354 4.23572C19.134 4.08807 18.7955 4.03332 18.463 4.07845L16.4662 4.38308L13.9954 2.96155L13.2677 1.08308C13.145 0.765031 12.929 0.491464 12.6482 0.298205C12.3674 0.104947 12.0347 0.00100702 11.6938 0H10.3061C9.96523 0.00100702 9.63259 0.104947 9.35176 0.298205C9.07093 0.491464 8.85501 0.765031 8.73228 1.08308ZM11 14.5357C12.9527 14.5357 14.5357 12.9527 14.5357 11C14.5357 9.04728 12.9527 7.46429 11 7.46429C9.04726 7.46429 7.46428 9.04728 7.46428 11C7.46428 12.9527 9.04726 14.5357 11 14.5357Z" fill="#647374"/>
</g>
<defs>
<clipPath id="clip0_520_108">
<rect width="22" height="22" fill="white"/>
</clipPath>
</defs>
</svg>
