<svg width="14" height="16" viewBox="0 0 14 16" fill="none" xmlns="http://www.w3.org/2000/svg">
<path d="M1.5791 12.5215H12.4141C13.0566 12.5215 13.4463 12.1934 13.4463 11.6943C13.4463 11.0107 12.749 10.3955 12.1611 9.78711C11.71 9.31543 11.5869 8.34473 11.5322 7.55859C11.4844 4.93359 10.7871 3.12891 8.96875 2.47266C8.70898 1.57715 8.00488 0.873047 6.99316 0.873047C5.98828 0.873047 5.27734 1.57715 5.02441 2.47266C3.20605 3.12891 2.50879 4.93359 2.46094 7.55859C2.40625 8.34473 2.2832 9.31543 1.83203 9.78711C1.2373 10.3955 0.546875 11.0107 0.546875 11.6943C0.546875 12.1934 0.929688 12.5215 1.5791 12.5215ZM6.99316 15.2627C8.15527 15.2627 9.00293 14.415 9.0918 13.458H4.90137C4.99023 14.415 5.83789 15.2627 6.99316 15.2627Z" fill="#1B5E20"/>
</svg>
