<svg width="22" height="22" viewBox="0 0 22 22" fill="none" xmlns="http://www.w3.org/2000/svg">
<g clip-path="url(#clip0_520_94)">
<path fill-rule="evenodd" clip-rule="evenodd" d="M1.57143 1.96387C1.15466 1.96387 0.754961 2.12943 0.46026 2.42412C0.165561 2.71883 0 3.11852 0 3.5353V17.6782C0 18.3033 0.248341 18.9029 0.690391 19.345C1.13244 19.787 1.73198 20.0353 2.35714 20.0353H19.25C19.9793 20.0353 20.6787 19.7455 21.1945 19.2298C21.7102 18.714 22 18.0146 22 17.2853V7.07101C22 6.63708 21.6482 6.2853 21.2143 6.2853H19.6727V16.4352C19.6727 16.9776 19.233 17.4173 18.6906 17.4173C18.1481 17.4173 17.7084 16.9776 17.7084 16.4352V5.88208C17.7084 5.86587 17.7087 5.84976 17.7095 5.83375V3.5353C17.7095 3.11852 17.5441 2.71883 17.2493 2.42412C16.9546 2.12943 16.5548 1.96387 16.1381 1.96387H1.57143ZM4.37883 6.3427C4.37883 5.90877 4.73061 5.55699 5.16455 5.55699H12.236C12.6699 5.55699 13.0217 5.90877 13.0217 6.3427V10.2713C13.0217 10.7052 12.6699 11.057 12.236 11.057H5.16455C4.73061 11.057 4.37883 10.7052 4.37883 10.2713V6.3427ZM4.1824 15.321C4.1824 14.7786 4.62212 14.3389 5.16455 14.3389H12.236C12.7784 14.3389 13.2181 14.7786 13.2181 15.321C13.2181 15.8635 12.7784 16.3032 12.236 16.3032H5.16455C4.62212 16.3032 4.1824 15.8635 4.1824 15.321Z" fill="#008A00"/>
</g>
<defs>
<clipPath id="clip0_520_94">
<rect width="22" height="22" fill="white"/>
</clipPath>
</defs>
</svg>
