<svg width="20" height="20" viewBox="0 0 20 20" fill="none" xmlns="http://www.w3.org/2000/svg">
<path d="M16.4444 6.66667V14.6667C16.4444 14.9024 16.3508 15.1285 16.1841 15.2952C16.0174 15.4619 15.7913 15.5556 15.5556 15.5556V0H0V17.7778C0 18.3671 0.234126 18.9324 0.650874 19.3491C1.06762 19.7659 1.63285 20 2.22222 20H17.7778C18.3671 20 18.9324 19.7659 19.3491 19.3491C19.7659 18.9324 20 18.3671 20 17.7778V6.66667H16.4444ZM2.88889 7.70444H10.4444V8.59333H2.88889V7.70444ZM10.4444 16H2.88889V15.1111H10.4444V16ZM12.6667 12.2956H2.88889V11.4067H12.6667V12.2956ZM12.6667 4.88889H2.88889V4H12.6667V4.88889Z" fill="#8E8E93"/>
</svg>
