<svg width="24" height="24" viewBox="0 0 24 24" fill="none" xmlns="http://www.w3.org/2000/svg">
<path d="M23.9598 15.2632C23.9108 15.0854 23.8215 14.9212 23.6986 14.7835C23.5758 14.6458 23.4229 14.5383 23.2517 14.4692C23.083 14.3987 22.9013 14.3646 22.7184 14.3692C22.5356 14.3737 22.3558 14.4168 22.1908 14.4956L17.311 16.9543C17.3678 17.2307 17.3596 17.5165 17.287 17.7891C17.1648 18.2964 16.8604 18.7411 16.4315 19.0387C16.0027 19.3364 15.4794 19.4662 14.9611 19.4035L10.6645 18.8493C10.5815 18.8393 10.5012 18.8129 10.4283 18.7719C10.3555 18.7308 10.2914 18.6758 10.2398 18.6099C10.1882 18.5441 10.1501 18.4688 10.1276 18.3882C10.1051 18.3077 10.0988 18.2235 10.1089 18.1405C10.1189 18.0575 10.1453 17.9773 10.1864 17.9045C10.2275 17.8316 10.2826 17.7676 10.3484 17.7161C10.4143 17.6645 10.4897 17.6264 10.5703 17.6039C10.6509 17.5815 10.7351 17.5751 10.8182 17.5852L15.1219 18.1417C15.3277 18.1662 15.5355 18.116 15.7073 18.0002C15.8792 17.8844 16.0036 17.7107 16.058 17.5108C16.1092 17.3199 16.0887 17.1168 16.0002 16.94C15.9117 16.7632 15.7615 16.625 15.578 16.5513L11.1302 14.6803C10.6997 14.4929 10.2352 14.3961 9.76562 14.3961C9.29605 14.3961 8.83152 14.4929 8.40105 14.6803L5.59509 15.8797V22.8504L12.52 23.9371C13.2202 24.0518 13.9372 24.0094 14.6189 23.8127C15.3006 23.616 15.93 23.2701 16.4613 22.8001L23.6046 16.6281C23.7704 16.4466 23.8894 16.2275 23.9513 15.9896C24.0132 15.7518 24.0161 15.5024 23.9598 15.2632V15.2632Z" fill="#8E8E93"/>
<path d="M3.28601 14.7834H0.960121C0.429861 14.7834 0 15.213 0 15.7429V23.0183C0 23.5482 0.429861 23.9778 0.960121 23.9778H3.28601C3.81627 23.9778 4.24614 23.5482 4.24614 23.0183V15.7429C4.24614 15.213 3.81627 14.7834 3.28601 14.7834Z" fill="#8E8E93"/>
<path d="M13.2136 7.78875C13.3003 7.64386 13.3452 7.47781 13.3432 7.309V7.309C13.3467 7.20539 13.3293 7.10214 13.2922 7.00533C13.2551 6.90852 13.199 6.82011 13.1272 6.7453C12.8888 6.54858 12.602 6.41935 12.2967 6.37109H12.2727V8.2589C12.454 8.249 12.6324 8.20929 12.8008 8.14136C12.9723 8.07049 13.1169 7.94702 13.2136 7.78875V7.78875Z" fill="#8E8E93"/>
<path d="M11.7735 3.75403C11.6305 3.76963 11.4911 3.80853 11.3607 3.86917C11.1951 3.94385 11.0526 4.06146 10.9478 4.20979C10.8583 4.33383 10.8073 4.48153 10.8014 4.63437V4.63437C10.8007 4.73259 10.8195 4.82998 10.8565 4.92096C10.8936 5.01193 10.9483 5.09469 11.0174 5.16449C11.2306 5.34841 11.4892 5.47183 11.7663 5.5219L11.7735 3.75403Z" fill="#8E8E93"/>
<path d="M12.0015 11.9937C13.1883 11.9937 14.3485 11.642 15.3353 10.9831C16.3222 10.3241 17.0913 9.38753 17.5455 8.29175C17.9996 7.19597 18.1185 5.9902 17.8869 4.82693C17.6554 3.66365 17.0839 2.59512 16.2447 1.75644C15.4054 0.917766 14.3362 0.346621 13.1722 0.115231C12.0081 -0.116159 10.8016 0.00259733 9.7051 0.456485C8.6086 0.910373 7.67141 1.679 7.01204 2.66518C6.35267 3.65136 6.00073 4.81079 6.00073 5.99685C6.00073 7.58732 6.63295 9.11264 7.75831 10.2373C8.88367 11.3619 10.41 11.9937 12.0015 11.9937V11.9937ZM11.6774 6.21754C11.2435 6.134 10.837 5.94447 10.4941 5.66583C10.3586 5.54246 10.2518 5.39088 10.1813 5.22178C10.1108 5.05267 10.0783 4.87017 10.086 4.68714V4.68714C10.0789 4.38582 10.168 4.09005 10.3405 3.84279C10.5191 3.59647 10.7614 3.40329 11.0414 3.28388C11.2745 3.18262 11.5226 3.12023 11.7759 3.09918V2.39874H12.2751V3.09918C12.5295 3.11854 12.7786 3.181 13.012 3.28388C13.2885 3.40566 13.5291 3.59648 13.7105 3.83799C13.8899 4.07791 13.9928 4.36631 14.0057 4.66556V4.72792H13.2857V4.68954C13.2689 4.50383 13.1998 4.32667 13.0864 4.17861C12.9729 4.0329 12.8231 3.91957 12.652 3.84998C12.5326 3.79931 12.4064 3.76619 12.2775 3.75164V5.65623L12.4047 5.68742C12.8532 5.77464 13.2755 5.96427 13.6385 6.24153C13.7843 6.36906 13.8986 6.52847 13.9727 6.70736C14.0468 6.88625 14.0787 7.07981 14.0657 7.27299C14.0758 7.59583 13.9769 7.91266 13.7849 8.17252C13.5911 8.4206 13.3341 8.612 13.0408 8.72662C12.7951 8.8234 12.5361 8.88244 12.2727 8.90173V9.60217H11.7735V8.89933C11.5152 8.87869 11.2617 8.81799 11.0222 8.71943C10.728 8.60031 10.4688 8.40889 10.2685 8.16292C10.0724 7.91491 9.95758 7.61254 9.93963 7.29698V7.2394H10.6597V7.28978C10.6909 7.46215 10.7588 7.62578 10.8589 7.76953C10.9694 7.92553 11.1205 8.04831 11.2958 8.12454C11.4482 8.18998 11.6104 8.22969 11.7759 8.24208V6.24153L11.6774 6.21754Z" fill="#8E8E93"/>
</svg>
