<svg width="18" height="18" viewBox="0 0 18 18" fill="none" xmlns="http://www.w3.org/2000/svg">
<g clip-path="url(#clip0_460_4389)">
<path fill-rule="evenodd" clip-rule="evenodd" d="M9.9637 0.964286C9.9637 0.431725 9.53197 0 8.99941 0C8.46685 0 8.03513 0.431725 8.03513 0.964286V2.62813C8.03513 3.1607 8.46685 3.59241 8.99941 3.59241C9.53197 3.59241 9.9637 3.1607 9.9637 2.62813V0.964286ZM17.0387 9.96794C17.5712 9.96794 18.003 9.53621 18.003 9.00365C18.003 8.47108 17.5712 8.03937 17.0387 8.03937H15.3748C14.8423 8.03937 14.4105 8.47108 14.4105 9.00365C14.4105 9.53621 14.8423 9.96794 15.3748 9.96794H17.0387ZM3.58949 9.00365C3.58949 9.53621 3.15776 9.96794 2.6252 9.96794H0.961356C0.428796 9.96794 -0.00292969 9.53621 -0.00292969 9.00365C-0.00292969 8.47108 0.428796 8.03937 0.961356 8.03937H2.6252C3.15776 8.03937 3.58949 8.47108 3.58949 9.00365ZM3.80877 5.17734C4.18534 5.55391 4.7959 5.55391 5.17247 5.17734C5.54905 4.80077 5.54905 4.19021 5.17247 3.81363L3.99595 2.63712C3.61938 2.26054 3.00883 2.26054 2.63225 2.63712C2.25567 3.0137 2.25567 3.62425 2.63225 4.00082L3.80877 5.17734ZM15.3661 2.63688C15.7427 3.01346 15.7427 3.624 15.3661 4.00059L14.1895 5.17711C13.8129 5.55368 13.2025 5.55368 12.8259 5.17711C12.4493 4.80052 12.4493 4.18998 12.8259 3.8134L14.0023 2.63688C14.3789 2.2603 14.9895 2.2603 15.3661 2.63688ZM8.74005 4.20619C9.04751 4.02867 9.44068 4.13401 9.6182 4.44149L9.8656 4.86999C9.87874 4.89007 9.89065 4.91073 9.90133 4.93187L14.3608 12.6559C14.3738 12.6757 14.3857 12.6964 14.3965 12.7178L14.6425 13.1439C14.82 13.4514 14.7147 13.8446 14.4072 14.0221C14.0998 14.1996 13.7066 14.0943 13.5291 13.7867L13.5033 13.7422L8.81327 14.8312C8.93245 15.2553 8.93823 15.7072 8.82425 16.1405C8.65597 16.7802 8.24048 17.3268 7.66919 17.6602C7.09788 17.9934 6.41756 18.0863 5.77789 17.918C5.13821 17.7497 4.59157 17.3343 4.25824 16.7629L4.25676 16.7603L3.81329 15.9922L1.58259 16.5102C1.30697 16.5743 1.02192 16.4505 0.880452 16.2054L0.0871702 14.8315C-0.0543017 14.5864 -0.018929 14.2777 0.1743 14.071L8.53185 5.13131L8.50473 5.08434C8.32722 4.77687 8.43257 4.38371 8.74005 4.20619ZM5.12241 15.6883L7.55815 15.1227C7.63225 15.3441 7.64115 15.5841 7.58083 15.8134C7.49931 16.1234 7.29802 16.3882 7.02124 16.5497C6.74446 16.7112 6.41487 16.7561 6.10498 16.6746C5.79549 16.5932 5.53097 16.3923 5.36942 16.116L5.12241 15.6883Z" fill="#008A00"/>
</g>
<defs>
<clipPath id="clip0_460_4389">
<rect width="18" height="18" fill="white"/>
</clipPath>
</defs>
</svg>
