<svg width="22" height="22" viewBox="0 0 22 22" fill="none" xmlns="http://www.w3.org/2000/svg">
<g clip-path="url(#clip0_520_393)">
<path fill-rule="evenodd" clip-rule="evenodd" d="M11 0C4.92487 0 0 4.92487 0 11C0 17.0751 4.92487 22 11 22C17.0751 22 22 17.0751 22 11C22 4.92487 17.0751 0 11 0ZM15.1164 6.88367C15.3268 7.0941 15.4003 7.40539 15.3062 7.68771L12.4085 16.3807C12.3115 16.6718 12.0539 16.8798 11.7489 16.9133C11.4438 16.9468 11.1473 16.7995 10.9894 16.5365L8.91721 13.0828L5.46357 11.0107C5.20045 10.8528 5.05332 10.5562 5.08681 10.2512C5.12028 9.94615 5.32826 9.68855 5.61937 9.59151L14.3123 6.69386C14.5947 6.59975 14.9059 6.67323 15.1164 6.88367Z" fill="#647374"/>
</g>
<defs>
<clipPath id="clip0_520_393">
<rect width="22" height="22" fill="white"/>
</clipPath>
</defs>
</svg>
