<svg width="32" height="32" viewBox="0 0 32 32" fill="none" xmlns="http://www.w3.org/2000/svg">
<path fill-rule="evenodd" clip-rule="evenodd" d="M16 0C7.16344 2.17128e-06 -2.17128e-06 7.16345 0 16C0 24.8366 7.16344 32 16 32C24.8366 32 32 24.8366 32 16C32 7.16344 24.8366 0 16 0ZM14.4697 18.4697C14.1768 18.7626 14.1768 19.2374 14.4697 19.5303C14.7626 19.8232 15.2374 19.8232 15.5303 19.5303L18.5303 16.5303C18.8232 16.2374 18.8232 15.7626 18.5303 15.4697L15.5303 12.4697C15.2374 12.1768 14.7626 12.1768 14.4697 12.4697C14.1768 12.7626 14.1768 13.2374 14.4697 13.5303L16.9393 16L14.4697 18.4697Z" fill="#1B5E20"/>
</svg>
