<svg width="58" height="120" viewBox="0 0 58 120" fill="none" xmlns="http://www.w3.org/2000/svg">
<g clip-path="url(#clip0_310_2149)">
<path d="M57.2381 31.7047V28.1714H35.8666V31.7047H39.3905V49.4571C36.7562 48.3867 33.9759 47.7189 31.1428 47.4762L29.5048 44.2C31.4697 43.984 33.2856 43.0498 34.604 41.5768C35.9223 40.1038 36.6501 38.1958 36.6476 36.219C36.6476 35.9047 36.6476 35.5905 36.5905 35.2666C36.4383 36.4266 35.9645 37.5208 35.2226 38.4254C34.4808 39.33 33.5005 40.0088 32.3928 40.3851C31.285 40.7614 30.0941 40.8201 28.9547 40.5546C27.8154 40.2891 26.7731 39.7099 25.9459 38.8827C25.1186 38.0555 24.5395 37.0132 24.2739 35.8738C24.0084 34.7345 24.0671 33.5435 24.4434 32.4358C24.8197 31.3281 25.4986 30.3478 26.4032 29.6059C27.3078 28.8641 28.4019 28.3902 29.5619 28.2381C29.2461 28.1965 28.928 28.1743 28.6095 28.1714C26.5548 28.1682 24.577 28.9528 23.0834 30.3639C21.5898 31.7749 20.694 33.7049 20.5805 35.7565C20.467 37.8081 21.1444 39.8251 22.4733 41.3923C23.8021 42.9594 25.6813 43.9575 27.7238 44.1809L26.0857 47.4571C18.9702 48.0905 12.35 51.3665 7.5303 56.6393C2.71056 61.9121 0.0409149 68.7991 0.04762 75.9428V98.7333H3.58094V75.9428C3.58275 70.0574 5.65382 64.36 9.43183 59.8473C13.2098 55.3346 18.4543 52.2939 24.2476 51.2571L22.1809 55.3809C17.8091 56.7614 13.9907 59.4988 11.2799 63.1961C8.56898 66.8934 7.10656 71.3582 7.10477 75.9428V98.7333H50.2286V75.9428C50.2268 71.3582 48.7644 66.8934 46.0535 63.1961C43.3426 59.4988 39.5242 56.7614 35.1524 55.3809L33.0857 51.2571C38.8791 52.2939 44.1235 55.3346 47.9015 59.8473C51.6795 64.36 53.7506 70.0574 53.7524 75.9428V98.7333H57.2857V75.9428C57.2918 71.1334 56.076 66.4013 53.7524 62.1904V31.7143L57.2381 31.7047ZM46.6571 75.9428C46.6592 79.3863 45.6755 82.7585 43.8224 85.6608C41.9692 88.5631 39.3241 90.8744 36.1994 92.3215C33.0747 93.7686 29.6011 94.291 26.189 93.8271C22.7769 93.3632 19.5689 91.9324 16.944 89.7036C14.319 87.4748 12.3869 84.5412 11.3759 81.2495C10.3649 77.9578 10.3172 74.4454 11.2385 71.1274C12.1598 67.8095 14.0116 64.8246 16.575 62.5253C19.1385 60.2261 22.3065 58.7087 25.7048 58.1524L26.3905 54.5047L28.2952 44.219H28.981L30.8857 54.5047L31.5714 58.1524C35.7803 58.8622 39.6028 61.0371 42.3633 64.2925C45.1238 67.548 46.6447 71.6745 46.6571 75.9428ZM50.181 57.1428C48.1046 54.7664 45.6531 52.746 42.9238 51.1619V31.7047H50.181V57.1428Z" fill="white"/>
<path d="M53.7048 18.981C53.7047 17.2855 53.1024 15.6452 52.0051 14.3526C50.9079 13.06 49.3872 12.1993 47.7143 11.9238L47.0571 10.0191C48.2949 9.89181 49.4415 9.31021 50.2753 8.38669C51.1091 7.46317 51.5709 6.2633 51.5714 5.01906C51.5813 4.82554 51.5813 4.63163 51.5714 4.43811C51.4763 5.16451 51.1798 5.84979 50.7153 6.41635C50.2508 6.9829 49.6371 7.4081 48.9434 7.64384C48.2498 7.87957 47.504 7.91641 46.7905 7.75018C46.077 7.58395 45.4243 7.2213 44.9063 6.70327C44.3883 6.18524 44.0256 5.53253 43.8594 4.81904C43.6931 4.10555 43.73 3.35977 43.9657 2.66613C44.2014 1.97249 44.6267 1.3587 45.1932 0.894248C45.7598 0.429792 46.445 0.133221 47.1715 0.0381131C46.9779 0.0283926 46.784 0.0283926 46.5905 0.0381131C45.3082 0.0455788 44.0774 0.543577 43.1507 1.42989C42.2239 2.3162 41.6716 3.52359 41.607 4.80429C41.5424 6.08499 41.9705 7.34183 42.8034 8.31688C43.6362 9.29192 44.8107 9.9112 46.0857 10.0476L45.4191 11.9524C43.7469 12.2296 42.2273 13.0909 41.1305 14.3831C40.0336 15.6753 39.4306 17.3146 39.4286 19.0095V24.7238H53.7143L53.7048 18.981ZM50.181 21.5143H42.9048V18.6572C42.9525 17.7257 43.3561 16.8482 44.0322 16.2057C44.7084 15.5633 45.6054 15.2051 46.5381 15.2051C47.4708 15.2051 48.3678 15.5633 49.044 16.2057C49.7201 16.8482 50.1237 17.7257 50.1714 18.6572L50.181 21.5143Z" fill="white"/>
<path d="M14.1143 75.9429C14.1143 76.0667 14.1143 76.181 14.1143 76.2952C14.1091 76.3268 14.1091 76.359 14.1143 76.3905C14.1095 76.438 14.1095 76.4858 14.1143 76.5333C14.2503 80.2868 15.8371 83.8411 18.5406 86.4484C21.2441 89.0556 24.8536 90.5126 28.6095 90.5126C32.3654 90.5126 35.9749 89.0556 38.6784 86.4484C41.3819 83.8411 42.9686 80.2868 43.1047 76.5333C43.1094 76.4858 43.1094 76.438 43.1047 76.3905C43.1099 76.359 43.1099 76.3268 43.1047 76.2952C43.1047 76.181 43.1047 76.0667 43.1047 75.9429C43.1047 72.096 41.5766 68.4066 38.8564 65.6864C36.1362 62.9663 32.4469 61.4381 28.6 61.4381C24.7531 61.4381 21.0637 62.9663 18.3436 65.6864C15.6234 68.4066 14.0952 72.096 14.0952 75.9429H14.1143ZM25.9524 63.6762C25.0679 65.622 24.4958 67.6951 24.2571 69.8191C23.306 69.6067 22.373 69.3201 21.4666 68.9619C22.2996 66.7307 23.8864 64.861 25.9524 63.6762ZM25.4285 75.6C25.4285 74.1714 25.5047 72.8572 25.619 71.6667C27.6101 71.9334 29.6279 71.9334 31.619 71.6667C31.7333 72.8572 31.8 74.1714 31.8095 75.6H25.4285ZM31.7904 77.181C31.7904 78.2667 31.7047 79.2857 31.619 80.2286C29.6288 79.9492 27.6093 79.9492 25.619 80.2286C25.5333 79.2762 25.4762 78.2667 25.4476 77.181H31.7904ZM23.8667 77.181C23.8667 78.3048 23.9619 79.4191 24.0666 80.4952C22.994 80.7233 21.9426 81.0419 20.9238 81.4476C20.4981 80.0676 20.2391 78.6416 20.1523 77.2L23.8667 77.181ZM20.1238 75.6C20.1455 73.8565 20.4149 72.1249 20.9238 70.4572C21.9426 70.8628 22.994 71.1814 24.0666 71.4095C23.9333 72.7714 23.8571 74.1905 23.8476 75.6095L20.1238 75.6ZM22.2571 64.6953C21.349 65.7846 20.6046 67.0005 20.0476 68.3048C19.6156 68.0798 19.1959 67.8318 18.7904 67.5619C19.7719 66.4134 20.9448 65.4435 22.2571 64.6953ZM17.8286 68.8286C18.3625 69.1771 18.9157 69.4951 19.4857 69.781C18.8811 71.6528 18.5601 73.6046 18.5333 75.5714H15.6762C15.7512 73.1671 16.4967 70.8317 17.8286 68.8286ZM17.8286 83.0572C16.6633 81.2992 15.9501 79.2807 15.7523 77.181H18.6095C18.7168 78.8498 19.0369 80.498 19.5619 82.0857C18.9654 82.375 18.3866 82.6994 17.8286 83.0572ZM18.7809 84.3238C19.1864 84.0539 19.606 83.8059 20.0381 83.581C20.5951 84.8852 21.3395 86.1012 22.2476 87.1905C20.9365 86.4443 19.7664 85.4741 18.7904 84.3238H18.7809ZM21.4571 82.9333C22.3619 82.5708 23.2953 82.2841 24.2476 82.0762C24.4889 84.1997 25.0609 86.2723 25.9428 88.2191C23.8825 87.0301 22.3 85.1614 21.4666 82.9333H21.4571ZM28.6095 88.8762C27.7904 88.8762 26.4476 86.4572 25.8 81.8C27.6635 81.5334 29.5555 81.5334 31.419 81.8C30.7809 86.4572 29.4381 88.8762 28.619 88.8762H28.6095ZM31.2762 88.2191C32.1581 86.2723 32.7301 84.1997 32.9714 82.0762C33.9237 82.2841 34.8571 82.5708 35.7619 82.9333C34.9285 85.1614 33.346 87.0301 31.2857 88.2191H31.2762ZM33.3809 77.181H37.0952C37.0085 78.6225 36.7495 80.0486 36.3238 81.4286C35.305 81.0229 34.2536 80.7043 33.1809 80.4762C33.2762 79.4191 33.3809 78.3048 33.3809 77.181ZM33.1809 71.4C34.2536 71.1719 35.3049 70.8533 36.3238 70.4476C36.8327 72.1154 37.102 73.847 37.1238 75.5905H33.3809C33.3809 74.2191 33.3047 72.7619 33.1714 71.3619L33.1809 71.4ZM34.9904 87.1905C35.8986 86.1012 36.6429 84.8852 37.2 83.581C37.632 83.8059 38.0516 84.0539 38.4571 84.3238C37.4754 85.4758 36.2988 86.4462 34.9809 87.1905H34.9904ZM39.419 83.0572C38.8852 82.7085 38.3319 82.3905 37.7619 82.1048C38.2869 80.5171 38.6069 78.8688 38.7143 77.2H41.5714C41.3449 79.3008 40.6022 81.313 39.4095 83.0572H39.419ZM39.419 68.8286C40.7459 70.8429 41.4816 73.1887 41.5428 75.6H38.6857C38.6635 73.6327 38.3424 71.6803 37.7333 69.8095C38.3104 69.5151 38.8701 69.1875 39.4095 68.8286H39.419ZM38.4666 67.5714C38.0666 67.8286 37.6476 68.0762 37.2095 68.3048C36.6524 67.0005 35.9081 65.7846 35 64.6953C36.3065 65.4401 37.4731 66.4069 38.4476 67.5524L38.4666 67.5714ZM35.7904 68.9619C34.8841 69.3201 33.9511 69.6067 33 69.8191C32.7613 67.6951 32.1892 65.622 31.3047 63.6762C33.3636 64.8644 34.9433 66.7337 35.7714 68.9619H35.7904ZM31.4762 70.0857C29.6126 70.3523 27.7207 70.3523 25.8571 70.0857C26.5047 65.4286 27.8476 63.0191 28.6666 63.0191C29.4857 63.0191 30.7809 65.4286 31.4762 70.0857Z" fill="white"/>
<path d="M0.0476074 119.171C1.71427 118.962 2.15236 118.762 2.15236 117.438V104.695C2.15236 103.371 1.71427 103.181 0.0476074 102.962V102.305H8.08571V102.962C6.44761 103.181 5.99046 103.371 5.99046 104.695V117.486C5.99046 118.809 6.44761 119.01 8.08571 119.219V119.876H0.0476074V119.171Z" fill="white"/>
<path d="M32.7428 119.171V119.829H24.9524V119.171C26.9809 118.933 27.2952 118.524 26.7619 117.2L25.6952 114.571H19.0285L18.1619 116.686C17.5333 118.21 18.1619 118.933 20.2381 119.171V119.829H14.5238V119.171C15.4762 118.933 15.9905 118.219 16.4762 117.029L22.5809 102.257H24.7809L30.9809 117.2C31.3714 118.352 31.7809 118.981 32.7428 119.171ZM25.219 113.381L22.3619 106.295L19.5047 113.381H25.219Z" fill="white"/>
<path d="M57.2381 119.171V119.829C56.3248 119.939 55.4058 119.997 54.4857 120C52.6953 120 51.8286 119.686 50.8857 118.238L47.2476 112.762C47.1387 112.55 46.9714 112.374 46.7656 112.254C46.5597 112.134 46.3238 112.076 46.0857 112.086H45.1334V117.438C45.1334 118.762 45.5905 118.962 47.1905 119.171V119.829H39.2V119.171C40.8667 118.962 41.2953 118.762 41.2953 117.438V104.695C41.2953 103.371 40.8667 103.181 39.2 102.962V102.305H47.6667C52.181 102.305 54.6191 103.752 54.6191 106.752C54.6191 109.333 52.8572 110.733 50.5619 111.514L54.3715 116.771C55.5238 118.257 56.4857 119.171 57.2381 119.171ZM50.6476 107.067C50.6476 104.629 49.1048 103.39 46.2572 103.39H45.0953V110.848C45.6231 110.989 46.168 111.056 46.7143 111.048C47.2454 111.088 47.779 111.013 48.2779 110.827C48.7769 110.64 49.2293 110.348 49.6037 109.969C49.978 109.59 50.2654 109.134 50.4457 108.633C50.6259 108.132 50.6949 107.597 50.6476 107.067Z" fill="white"/>
</g>
<defs>
<clipPath id="clip0_310_2149">
<rect width="57.2286" height="120" fill="white"/>
</clipPath>
</defs>
</svg>
