<svg width="12" height="14" viewBox="0 0 12 14" fill="none" xmlns="http://www.w3.org/2000/svg">
<path fill-rule="evenodd" clip-rule="evenodd" d="M0 6C0 2.68629 2.68629 0 6 0C9.3137 0 12 2.68629 12 6C12 7.94724 10.8813 9.72988 9.7156 11.0701C8.53831 12.4237 7.24167 13.4074 6.74432 13.7644C6.52045 13.9251 6.25937 14 6 14C5.74063 14 5.47955 13.9251 5.25568 13.7644C4.75833 13.4074 3.46169 12.4237 2.28441 11.0701C1.11874 9.72987 0 7.94724 0 6ZM6 7.5C7.10457 7.5 8 6.60457 8 5.5C8 4.39543 7.10457 3.5 6 3.5C4.89543 3.5 4 4.39543 4 5.5C4 6.60457 4.89543 7.5 6 7.5Z" fill="#008A00"/>
</svg>
