<svg width="18" height="18" viewBox="0 0 18 18" fill="none" xmlns="http://www.w3.org/2000/svg">
<path fill-rule="evenodd" clip-rule="evenodd" d="M7.99061 1.62447C9.25629 0.746071 10.9587 1.67344 10.9286 3.20413V14.818C10.8948 16.3432 9.1266 17.2451 7.8749 16.3765C7.84578 16.3563 7.81838 16.3337 7.79297 16.309L3.59589 12.2226H1.92857C0.871408 12.2226 0 11.3457 0 10.2901V7.71089C0 6.65528 0.871407 5.77841 1.92857 5.77841H3.60075L7.91472 1.6862C7.93841 1.66372 7.96379 1.64309 7.99061 1.62447ZM16.645 4.246C16.3692 3.79045 15.7762 3.64475 15.3207 3.92058C14.8652 4.19641 14.7195 4.78932 14.9953 5.24489C15.6817 6.37864 16.0532 7.67498 16.0714 9.0001C16.0532 10.3252 15.6817 11.6216 14.9953 12.7553C14.7195 13.2108 14.8652 13.8038 15.3207 14.0796C15.7762 14.3555 16.3692 14.2097 16.645 13.7542C17.5118 12.3226 17.9797 10.6852 18 9.01182V8.98837C17.9797 7.31499 17.5118 5.67756 16.645 4.246ZM14.138 6.56206C13.7984 6.1517 13.1907 6.0942 12.7803 6.43363C12.3699 6.77308 12.3124 7.38091 12.6518 7.79128C12.9213 8.11714 13.0596 8.53183 13.0395 8.95424C13.038 8.98479 13.038 9.0154 13.0395 9.04596C13.0596 9.46836 12.9213 9.88306 12.6518 10.2089C12.3124 10.6193 12.3699 11.2271 12.7803 11.5666C13.1907 11.906 13.7984 11.8485 14.138 11.4381C14.7038 10.754 14.9988 9.88639 14.9678 9.0001C14.9988 8.1138 14.7038 7.24624 14.138 6.56206Z" fill="#008A00"/>
</svg>
