<svg width="18" height="18" viewBox="0 0 18 18" fill="none" xmlns="http://www.w3.org/2000/svg">
<path fill-rule="evenodd" clip-rule="evenodd" d="M4.50612 1.86032C5.69789 0.668553 7.31428 -0.000976562 8.99969 -0.000976562C10.6851 -0.000976562 12.3015 0.668552 13.4933 1.86032C14.685 3.05209 15.3546 4.66848 15.3546 6.35389V12.0279C15.3546 12.4255 15.5125 12.8068 15.7937 13.0879C16.1127 13.4069 16.3634 13.527 16.714 13.527C17.069 13.527 17.3569 13.8148 17.3569 14.1699C17.3569 14.5249 17.069 14.8127 16.714 14.8127H1.28544C0.930396 14.8127 0.642578 14.5249 0.642578 14.1699C0.642578 13.8148 0.930396 13.527 1.28544 13.527C1.63605 13.527 1.88671 13.4069 2.20574 13.0879C2.48688 12.8068 2.64482 12.4255 2.64482 12.0279V6.35389C2.64482 4.66848 3.31436 3.05209 4.50612 1.86032ZM6.74972 17.036C6.74972 16.5034 7.18145 16.0717 7.71401 16.0717H10.2854C10.818 16.0717 11.2497 16.5034 11.2497 17.036C11.2497 17.5685 10.818 18.0003 10.2854 18.0003H7.71401C7.18145 18.0003 6.74972 17.5685 6.74972 17.036Z" fill="#008A00"/>
</svg>
