<svg width="130" height="130" viewBox="0 0 130 130" fill="none" xmlns="http://www.w3.org/2000/svg">
<path d="M-4.42412e-06 79.3939L18.39 97.7925L34.97 97.7925L23.25 109.512L23.25 130L28.78 130L28.78 111.801L42.78 97.8025L60.98 97.8025L60.98 116.001L46.98 130L54.79 130L60.99 123.8L60.99 130L66.52 130L66.52 118.281L79.39 105.412L92.26 118.281L92.26 130L97.78 130L97.78 123.8L103.98 130L111.8 130L97.8 116.001L97.8 97.8025L116 97.8025L130 111.801L130 103.982L123.8 97.7925L130 97.7925L130 92.2629L118.27 92.2629L105.4 79.3939L118.27 66.5249L130 66.5249L130 61.0053L123.8 61.0053L130 54.8058L130 46.9864L116 60.9854L97.8 60.9854L97.8 42.7767L111.8 28.7778L130 28.7778L130 23.2482L109.51 23.2482L97.78 34.9774L97.78 18.3986L79.39 4.42447e-06L60.99 18.3986L60.99 34.9774L49.27 23.2482L23.27 23.2482L23.27 49.2462L34.97 61.0053L18.39 61.0053L-4.42412e-06 79.3939ZM66.52 20.6984L79.39 7.82942L92.26 20.6984L92.26 40.5169L79.39 53.3759L66.52 40.5169L66.52 20.6984ZM66.52 66.5249L66.52 48.3263L79.39 61.1953L92.26 48.3263L92.26 66.5249L110.46 66.5249L97.57 79.3939L110.44 92.2629L92.24 92.2629L92.24 110.462L79.37 97.5925L66.5 110.462L66.5 92.2629L48.3 92.2629L61.19 79.3939L48.32 66.5249L66.52 66.5249ZM28.78 46.9864L28.78 28.7878L46.98 28.7878L60.98 42.7867L60.98 60.9953L42.78 60.9953L28.78 46.9864ZM40.5 66.5249L53.37 79.3939L40.5 92.2629L20.68 92.2629L7.80999 79.3939L20.68 66.5249L40.5 66.5249Z" fill="#1B5E20"/>
</svg>
