<svg width="14" height="16" viewBox="0 0 14 16" fill="none" xmlns="http://www.w3.org/2000/svg">
<path d="M6.98633 0.873047C5.97461 0.873047 5.27051 1.57715 5.01074 2.47266C4.64844 2.5957 4.33398 2.7666 4.06738 2.98535L13.2617 12.1934C13.3779 12.0635 13.4326 11.8926 13.4326 11.6943C13.4326 11.0107 12.7422 10.3955 12.1475 9.78711C11.6963 9.31543 11.5732 8.34473 11.5254 7.55859C11.4707 4.93359 10.7803 3.12891 8.96191 2.47266C8.70215 1.57715 7.99121 0.873047 6.98633 0.873047ZM0.683594 2.26074L12.9678 14.5244C13.1729 14.7363 13.5078 14.7363 13.7129 14.5244C13.9111 14.3193 13.918 13.9912 13.7129 13.7793L1.43555 1.51562C1.23047 1.31055 0.895508 1.31055 0.683594 1.51562C0.485352 1.71387 0.485352 2.0625 0.683594 2.26074ZM1.56543 12.5215H9.81641L2.68652 5.38477C2.53613 6.03418 2.46094 6.75195 2.44727 7.55859C2.39258 8.34473 2.27637 9.31543 1.8252 9.78711C1.23047 10.3955 0.533203 11.0107 0.533203 11.6943C0.533203 12.1934 0.922852 12.5215 1.56543 12.5215ZM6.98633 15.2627C8.1416 15.2627 8.98926 14.415 9.08496 13.458H4.8877C4.97656 14.415 5.82422 15.2627 6.98633 15.2627Z" fill="#1B5E20"/>
</svg>
