<svg width="18" height="18" viewBox="0 0 18 18" fill="none" xmlns="http://www.w3.org/2000/svg">
<g clip-path="url(#clip0_414_6160)">
<path fill-rule="evenodd" clip-rule="evenodd" d="M0.382042 1.74673C0.00546499 1.37015 0.00546499 0.759596 0.382042 0.383019C0.758619 0.00644167 1.36917 0.00644167 1.74575 0.383019L3.95852 2.59579C4.12732 2.37538 4.31129 2.16513 4.50977 1.96665C5.70057 0.775848 7.31565 0.106864 8.99969 0.106864C10.6837 0.106864 12.2988 0.775848 13.4896 1.96665C14.6805 3.15746 15.3494 4.77252 15.3494 6.45657V12.1254C15.3494 12.5225 15.5072 12.9033 15.788 13.1841C16.1066 13.5027 16.3569 13.6227 16.707 13.6227C17.0621 13.6227 17.3499 13.9104 17.3499 14.2655C17.3499 14.6205 17.0621 14.9084 16.707 14.9084H16.271L17.6174 16.2547C17.994 16.6312 17.994 17.2418 17.6174 17.6184C17.2408 17.995 16.6302 17.995 16.2537 17.6184L0.382042 1.74673ZM2.65236 6.28301L11.2777 14.9084H1.29241C0.937367 14.9084 0.649549 14.6205 0.649549 14.2655C0.649549 13.9104 0.937367 13.6227 1.29241 13.6227C1.64251 13.6227 1.8928 13.5027 2.21146 13.1841C2.49225 12.9033 2.64998 12.5225 2.64998 12.1254V6.45657C2.64998 6.39862 2.65078 6.34077 2.65236 6.28301ZM6.75088 16.9483C6.75088 16.4158 7.18261 15.984 7.71517 15.984H10.2843C10.8168 15.984 11.2486 16.4158 11.2486 16.9483C11.2486 17.4808 10.8168 17.9126 10.2843 17.9126H7.71517C7.18261 17.9126 6.75088 17.4808 6.75088 16.9483Z" fill="#A6B1B5"/>
</g>
<defs>
<clipPath id="clip0_414_6160">
<rect width="18" height="18" fill="white"/>
</clipPath>
</defs>
</svg>
