<svg width="18" height="24" viewBox="0 0 18 24" fill="none" xmlns="http://www.w3.org/2000/svg">
<path d="M15.8226 9.60863C16.065 9.01912 16.1945 8.38939 16.2043 7.75215C16.2043 6.04197 14.9896 4.96742 12.4377 3.34359C10.6012 2.17549 9.57615 0.978613 9.0024 0C8.43105 0.981011 7.40598 2.17789 5.56949 3.34359C3.01762 4.96742 1.8005 6.04197 1.8005 7.75215C1.81115 8.38954 1.94144 9.01927 2.1846 9.60863C1.58607 9.66267 1.02959 9.93904 0.625113 10.3831C0.220636 10.8272 -0.00241864 11.4067 1.97834e-05 12.0072V24H18V12.0072C18.0026 11.4079 17.7805 10.8293 17.3775 10.3854C16.9746 9.94147 16.4198 9.66437 15.8226 9.60863Z" fill="#1B5E20"/>
</svg>
