<svg width="22" height="22" viewBox="0 0 22 22" fill="none" xmlns="http://www.w3.org/2000/svg">
<g clip-path="url(#clip0_520_104)">
<path fill-rule="evenodd" clip-rule="evenodd" d="M21.8168 8.95677C21.8168 11.5968 19.3654 12.8068 15.924 12.8068C12.4825 12.8068 10.0311 11.5968 10.0311 8.95677C10.0311 6.04963 11.5083 4.16392 14.4468 2.73392L13.284 1.16249C13.2369 1.06644 13.2145 0.960181 13.2188 0.8533C13.223 0.746421 13.2538 0.642284 13.3084 0.550288C13.363 0.458293 13.4396 0.381333 13.5314 0.32635C13.6231 0.271367 13.7271 0.240094 13.834 0.235352H18.014C18.123 0.238867 18.2294 0.270008 18.3231 0.325858C18.4167 0.381708 18.4948 0.460437 18.5497 0.554667C18.6047 0.648897 18.6348 0.75554 18.6374 0.8646C18.6399 0.973662 18.6146 1.08157 18.564 1.17821L17.4011 2.67106C20.3397 4.10106 21.8168 6.04963 21.8168 8.95677ZM3.07996 10.7639H0.183594V17.0496L3.05684 19.9228C4.23563 21.1015 5.83444 21.7639 7.5015 21.7639H16.6836C17.9854 21.7639 19.0407 20.7085 19.0407 19.4067C19.0407 18.1048 17.9854 17.0496 16.6836 17.0496H12.32C12.1683 17.5625 11.89 18.0462 11.4851 18.451C10.1903 19.7459 8.09101 19.7459 6.7962 18.451L4.51761 16.1724C4.13406 15.7888 4.13406 15.167 4.51761 14.7835C4.90117 14.3999 5.52301 14.3999 5.90657 14.7835L8.18517 17.062C8.71287 17.5897 9.56845 17.5897 10.0962 17.062C10.5707 16.5874 10.6185 15.8478 10.2395 15.3198L7.52463 12.6049C6.34584 11.4261 4.74704 10.7639 3.07996 10.7639Z" fill="#647374"/>
</g>
<defs>
<clipPath id="clip0_520_104">
<rect width="22" height="22" fill="white"/>
</clipPath>
</defs>
</svg>
