<svg width="22" height="22" viewBox="0 0 22 22" fill="none" xmlns="http://www.w3.org/2000/svg">
<path d="M16.8376 8.91595C17.1576 8.29623 17.4 7.49659 17.4 6.70695C17.4 5.13766 16.3236 4.15811 14.0545 2.66879C12.7745 1.82917 11.9406 0.969559 11.3879 0.209905C11.1939 -0.0699682 10.8061 -0.0699682 10.6121 0.209905C10.0691 0.969559 9.22546 1.82917 7.94546 2.66879C5.67636 4.15811 4.6 5.13766 4.6 6.70695C4.6 7.49659 4.84242 8.28623 5.16242 8.91595C3.92121 9.25579 3 10.4153 3 11.8046V22H19V11.8046C19 10.4153 18.0788 9.25579 16.8376 8.91595Z" fill="#008A00"/>
</svg>
