<svg width="32" height="32" viewBox="0 0 32 32" fill="none" xmlns="http://www.w3.org/2000/svg">
<path fill-rule="evenodd" clip-rule="evenodd" d="M16 32C24.8366 32 32 24.8366 32 16C32 7.16344 24.8366 -3.18845e-06 16 1.39876e-06C7.16344 2.17128e-06 -2.17128e-06 7.16345 5.08584e-07 16C1.2811e-06 24.8366 7.16345 32 16 32ZM17.5303 12.5303C17.8232 12.2374 17.8232 11.7626 17.5303 11.4697C17.2374 11.1768 16.7626 11.1768 16.4697 11.4697L12.4697 15.4697C12.1768 15.7626 12.1768 16.2374 12.4697 16.5303L16.4697 20.5303C16.7626 20.8232 17.2374 20.8232 17.5303 20.5303C17.8232 20.2374 17.8232 19.7626 17.5303 19.4697L14.0607 16L17.5303 12.5303Z" fill="#1B5E20"/>
</svg>
