<svg width="18" height="18" viewBox="0 0 18 18" fill="none" xmlns="http://www.w3.org/2000/svg">
<g clip-path="url(#clip0_397_1974)">
<path fill-rule="evenodd" clip-rule="evenodd" d="M4.83817 0.401859C5.14884 0.834422 5.05 1.43693 4.61745 1.74758C3.7859 2.34478 3.10838 3.13125 2.64084 4.04203C2.17329 4.9528 1.92915 5.96174 1.92857 6.9855C1.92828 7.51807 1.4963 7.94955 0.963739 7.94925C0.43118 7.94894 -0.000301245 7.51698 1.57809e-07 6.98441C0.000753322 5.65469 0.317861 4.34422 0.925129 3.16128C1.53239 1.97832 2.4124 0.956806 3.49245 0.181134C3.925 -0.129527 4.52751 -0.0307041 4.83817 0.401859ZM4.90888 3.94467C5.99391 2.85963 7.46554 2.25008 9 2.25008C10.5345 2.25008 12.0061 2.85963 13.0911 3.94467C14.1762 5.0297 14.7857 6.50132 14.7857 8.03579V12.5358C14.7857 12.8768 14.9212 13.2038 15.1623 13.445C15.4034 13.686 15.7305 13.8216 16.0714 13.8216C16.4264 13.8216 16.7143 14.1093 16.7143 14.4644C16.7143 14.8194 16.4264 15.1073 16.0714 15.1073H1.92857C1.57353 15.1073 1.28571 14.8194 1.28571 14.4644C1.28571 14.1093 1.57353 13.8216 1.92857 13.8216C2.26957 13.8216 2.59659 13.686 2.83771 13.445C3.07882 13.2038 3.21429 12.8768 3.21429 12.5358V8.03579C3.21429 6.50132 3.82386 5.0297 4.90888 3.94467ZM6.75 17.0358C6.75 16.5032 7.18173 16.0716 7.71429 16.0716H10.2857C10.8183 16.0716 11.25 16.5032 11.25 17.0358C11.25 17.5684 10.8183 18.0001 10.2857 18.0001H7.71429C7.18173 18.0001 6.75 17.5684 6.75 17.0358ZM14.5076 0.181134C14.075 -0.129527 13.4725 -0.0307041 13.1619 0.401859C12.8512 0.834422 12.95 1.43693 13.3826 1.74758C14.2141 2.34478 14.8917 3.13125 15.3591 4.04203C15.8268 4.9528 16.0709 5.96174 16.0714 6.9855C16.0717 7.51807 16.5037 7.94955 17.0362 7.94925C17.5688 7.94894 18.0003 7.51698 18 6.98441C17.9992 5.65469 17.6822 4.34422 17.0749 3.16128C16.4676 1.97832 15.5876 0.956807 14.5076 0.181134Z" fill="#008A00"/>
</g>
<defs>
<clipPath id="clip0_397_1974">
<rect width="18" height="18" fill="white"/>
</clipPath>
</defs>
</svg>
