<svg width="272" height="172" viewBox="0 0 272 172" fill="none" xmlns="http://www.w3.org/2000/svg">
<rect x="0.25" y="0.25" width="271.5" height="171.5" rx="7.75" fill="url(#paint0_linear_201_571)" stroke="#567567" stroke-width="0.5"/>
<path d="M130 50.6061L111.61 32.2075H95.03L106.75 20.4884V0H101.22V18.1986L87.22 32.1975H69.02V13.9989L83.02 0H75.21L69.01 6.19953V0H63.48V11.7191L50.61 24.5881L37.74 11.7191V0H32.22V6.19953L26.02 0H18.2L32.2 13.9989V32.1975H14L0 18.1986V26.018L6.20001 32.2075H0V37.7371H11.73L24.6 50.6061L11.73 63.4751H0V68.9947H6.20001L0 75.1942V83.0136L14 69.0146H32.2V87.2233L18.2 101.222H0V106.752H20.49L32.22 95.0227V111.601L50.61 130L69.01 111.601V95.0227L80.73 106.752H106.73V80.7538L95.03 68.9947H111.61L130 50.6061ZM63.48 109.302L50.61 122.171L37.74 109.302V89.4831L50.61 76.6241L63.48 89.4831V109.302ZM63.48 63.4751V81.6737L50.61 68.8047L37.74 81.6737V63.4751H19.54L32.43 50.6061L19.56 37.7371H37.76V19.5385L50.63 32.4075L63.5 19.5385V37.7371H81.7L68.81 50.6061L81.68 63.4751H63.48ZM101.22 83.0136V101.212H83.02L69.02 87.2133V69.0047H87.22L101.22 83.0136ZM89.5 63.4751L76.63 50.6061L89.5 37.7371H109.32L122.19 50.6061L109.32 63.4751H89.5Z" fill="white" fill-opacity="0.05"/>
<defs>
<linearGradient id="paint0_linear_201_571" x1="0" y1="0" x2="13.6781" y2="190.544" gradientUnits="userSpaceOnUse">
<stop stop-color="#1B5E20"/>
<stop offset="1" stop-color="#023920"/>
</linearGradient>
</defs>
</svg>
