<svg width="12" height="12" viewBox="0 0 12 12" fill="none" xmlns="http://www.w3.org/2000/svg">
<path fill-rule="evenodd" clip-rule="evenodd" d="M3.85714 0.857143C3.85714 0.383756 3.47338 0 3 0C2.52662 0 2.14286 0.383756 2.14286 0.857143V1.71429H1.28571C0.575634 1.71429 0 2.28992 0 3V10.7143C0 11.4243 0.575634 12 1.28571 12H10.7143C11.4243 12 12 11.4243 12 10.7143V3C12 2.28992 11.4243 1.71429 10.7143 1.71429H9.85723V0.857143C9.85723 0.383756 9.47349 0 9.00009 0C8.52672 0 8.14296 0.383756 8.14296 0.857143V1.71429H3.85714V0.857143ZM2.57143 6C3.04481 6 3.42857 5.61624 3.42857 5.14286C3.42857 4.66947 3.04481 4.28571 2.57143 4.28571C2.09805 4.28571 1.71429 4.66947 1.71429 5.14286C1.71429 5.61624 2.09805 6 2.57143 6ZM6.85714 5.14286C6.85714 5.61624 6.47338 6 6 6C5.52662 6 5.14286 5.61624 5.14286 5.14286C5.14286 4.66947 5.52662 4.28571 6 4.28571C6.47338 4.28571 6.85714 4.66947 6.85714 5.14286ZM2.57143 9.42857C3.04481 9.42857 3.42857 9.04483 3.42857 8.57143C3.42857 8.09804 3.04481 7.71429 2.57143 7.71429C2.09805 7.71429 1.71429 8.09804 1.71429 8.57143C1.71429 9.04483 2.09805 9.42857 2.57143 9.42857ZM6.85714 8.57143C6.85714 9.04483 6.47338 9.42857 6 9.42857C5.52662 9.42857 5.14286 9.04483 5.14286 8.57143C5.14286 8.09804 5.52662 7.71429 6 7.71429C6.47338 7.71429 6.85714 8.09804 6.85714 8.57143ZM9.42857 6C9.90197 6 10.2857 5.61624 10.2857 5.14286C10.2857 4.66947 9.90197 4.28571 9.42857 4.28571C8.95517 4.28571 8.57143 4.66947 8.57143 5.14286C8.57143 5.61624 8.95517 6 9.42857 6Z" fill="#008A00"/>
</svg>
