<svg width="24" height="25" viewBox="0 0 24 25" fill="none" xmlns="http://www.w3.org/2000/svg">
<mask id="mask0_107_169" style="mask-type:luminance" maskUnits="userSpaceOnUse" x="1" y="1" width="22" height="22">
<path d="M23 1H1V23H23V1Z" fill="white"/>
</mask>
<g mask="url(#mask0_107_169)">
<path fill-rule="evenodd" clip-rule="evenodd" d="M2.57143 2.96387C2.15466 2.96387 1.75496 3.12943 1.46026 3.42412C1.16556 3.71883 1 4.11852 1 4.5353V18.6782C1 19.3033 1.24834 19.9029 1.69039 20.345C2.13244 20.787 2.73198 21.0353 3.35714 21.0353H20.25C20.9793 21.0353 21.6787 20.7455 22.1945 20.2298C22.7102 19.714 23 19.0146 23 18.2853V8.07101C23 7.63708 22.6482 7.2853 22.2143 7.2853H20.6727V17.4352C20.6727 17.9776 20.233 18.4173 19.6906 18.4173C19.1481 18.4173 18.7084 17.9776 18.7084 17.4352V6.88208C18.7084 6.86587 18.7087 6.84976 18.7095 6.83375V4.5353C18.7095 4.11852 18.5441 3.71883 18.2493 3.42412C17.9546 3.12943 17.5548 2.96387 17.1381 2.96387H2.57143ZM5.37883 7.3427C5.37883 6.90877 5.73061 6.55699 6.16455 6.55699H13.236C13.6699 6.55699 14.0217 6.90877 14.0217 7.3427V11.2713C14.0217 11.7052 13.6699 12.057 13.236 12.057H6.16455C5.73061 12.057 5.37883 11.7052 5.37883 11.2713V7.3427ZM5.1824 16.321C5.1824 15.7786 5.62212 15.3389 6.16455 15.3389H13.236C13.7784 15.3389 14.2181 15.7786 14.2181 16.321C14.2181 16.8635 13.7784 17.3032 13.236 17.3032H6.16455C5.62212 17.3032 5.1824 16.8635 5.1824 16.321Z" fill="#008A00"/>
</g>
</svg>
